# xmcd
#
# Track frame offsets:
#	182
#	12905
#	25622
#	38565
#	49237
#	61407
#	73275
#	84920
#	96810
#	130197
#	147252
#	161595
#	175665
#	195105
#
# Disc length: 2771
#
# Revision: 3
# Processed by: cddbd v1.5.1PL0 Copyright (c) Steve Scherf et al.
# Submitted via: CDWizzard Release:4.32
# Normalized: r1:TDELIM( - ),TSWAP
#
DISCID=ad0ad10e
DTITLE=Various Artist - The Great Blues Album
DYEAR=1900
DGENRE=
TTITLE0=Big Bill Broonzy - Lonesome
TTITLE1=Jimmy Rodgers - That's Alright
TTITLE2=Memphis Minnie - Me and My Chauffeur
TTITLE3=B B King - Recession Blues
TTITLE4=Elmore James - The Sun Is Shining
TTITLE5=Albert King - Wild Woman
TTITLE6=Etta James - I'd Rather Go Blind
TTITLE7=Little Walter - Temperature
TTITLE8=Buddy Guy - Stone Crazy
TTITLE9=Howlin' Wolf - The Red Rooster
TTITLE10=Lowell Fulson - Reconsider Baby
TTITLE11=Muddy Waters - Forty Days and Forty Nights
TTITLE12=Koko Taylor - Insane Asylum
TTITLE13=John Lee Hooker - Hobo Blues
EXTD=
EXTT0=
EXTT1=
EXTT2=
EXTT3=
EXTT4=
EXTT5=
EXTT6=
EXTT7=
EXTT8=
EXTT9=
EXTT10=
EXTT11=
EXTT12=
EXTT13=
PLAYORDER=
